<?xml version="1.0" encoding="iso-8859-1"?>
<!-- Generator: Adobe Illustrator 19.0.0, SVG Export Plug-In . SVG Version: 6.00 Build 0)  -->
<svg xmlns="http://www.w3.org/2000/svg" xmlns:xlink="http://www.w3.org/1999/xlink" version="1.1" id="Layer_1" x="0px" y="0px" viewBox="0 0 512 512" style="enable-background:new 0 0 512 512;" xml:space="preserve" width="512px" height="512px">
<g>
	<g>
		<path d="M8.828,311.908c0,68.025,41.221,126.416,100.046,151.572V512h35.31v-37.933c9.548,1.722,19.381,2.622,29.425,2.622    h164.782c10.045,0,19.877-0.902,29.425-2.622V512h35.31v-48.52c58.825-25.156,100.046-83.548,100.046-151.572H8.828z" fill="#5d6872"/>
	</g>
</g>
<g>
	<g>
		<polygon points="344.275,229.517 308.966,229.517 308.964,229.517 308.964,276.598 308.966,276.598 344.275,276.598     344.276,276.598 344.276,229.517   " fill="#5d6872"/>
	</g>
</g>
<g>
	<g>
		<rect x="238.345" y="229.517" width="35.31" height="47.081" fill="#5d6872"/>
	</g>
</g>
<g>
	<g>
		<rect x="167.724" y="229.517" width="35.31" height="47.081" fill="#5d6872"/>
	</g>
</g>
<g>
	<g>
		<path d="M459.521,54.469C429.594,19.344,386.576,0,338.391,0c-55.165,0-100.046,44.881-100.046,100.046v2.226    c-30.459,7.839-52.966,35.489-52.966,68.395c0,13.001,10.539,23.54,23.54,23.54h94.161c13.001,0,23.54-10.539,23.54-23.54    c0-32.906-22.507-60.556-52.966-68.395v-2.226c0-35.695,29.04-64.736,64.736-64.736c76.23,0,129.471,60.501,129.471,147.126    v94.161h35.31v-94.161C503.172,132.955,487.67,87.508,459.521,54.469z" fill="#5d6872"/>
	</g>
</g>
<g>
</g>
<g>
</g>
<g>
</g>
<g>
</g>
<g>
</g>
<g>
</g>
<g>
</g>
<g>
</g>
<g>
</g>
<g>
</g>
<g>
</g>
<g>
</g>
<g>
</g>
<g>
</g>
<g>
</g>
</svg>
