<svg width="55" height="48" viewBox="0 0 55 48" xmlns="http://www.w3.org/2000/svg"><title>subscribed-success-icon</title><path d="M12.577 0A3.365 3.365 0 0 0 9.23 3.346v4.039h-.385a3.941 3.941 0 0 0-3.923 3.923v13.307H1.231c-.75.06-1.234.594-1.231 1.231v17.596C0 45.946 2.055 48 4.558 48h45.039c2.502 0 4.557-2.054 4.557-4.558V25.846a1.23 1.23 0 0 0-1.116-1.23c-.025-.002-1.294-.002-3.807 0V11.307c0-2.152-1.771-3.923-3.923-3.923h-.385V3.346A3.365 3.365 0 0 0 41.577 0h-29zm0 2.462h29c.505 0 .885.379.885.884v4.039h-30.77V3.346c0-.505.38-.884.885-.884zm-3.73 7.384h36.46c.828 0 1.462.634 1.462 1.462v2.096L27.077 23.827 7.385 13.404v-2.096c0-.828.634-1.462 1.461-1.462zm-1.462 6.346L26.5 26.308c.178.09.377.137.577.134.2.003.398-.043.577-.134l19.115-10.116v8.423h-5.134a1.23 1.23 0 0 0-1.212 1.02C39.35 32.037 33.8 36.923 27.077 36.923S14.805 32.037 13.73 25.635a1.23 1.23 0 0 0-1.212-1.02H7.385v-8.423zM2.462 27.077h9.115c1.68 7.04 7.959 12.308 15.5 12.308s13.82-5.267 15.5-12.308h9.115v16.365a2.07 2.07 0 0 1-2.096 2.096H4.558a2.07 2.07 0 0 1-2.096-2.096V27.077z" fill="#FFF"/></svg>