<?xml version="1.0" encoding="UTF-8"?>
<svg width="47px" height="49px" viewBox="0 0 47 49" version="1.1" xmlns="http://www.w3.org/2000/svg" xmlns:xlink="http://www.w3.org/1999/xlink">
    <!-- Generator: Sketch 46 (44423) - http://www.bohemiancoding.com/sketch -->
    <title>subscribed-failure-icon</title>
    <desc>Created with Sketch.</desc>
    <defs></defs>
    <g id="Website" stroke="none" stroke-width="1" fill="none" fill-rule="evenodd">
        <g id="Got-questions-form-large-reaction-failure" transform="translate(-697.000000, -179.000000)" fill-rule="nonzero" fill="#FFFFFF">
            <g id="got-qs?reaction">
                <g id="reaction" transform="translate(567.000000, 59.000000)">
                    <path d="M155.096809,140.184136 L158.089719,137.191226 C158.548868,136.732076 158.548868,135.987648 158.089719,135.528498 C157.630569,135.069349 156.88614,135.069349 156.426991,135.528498 L153.434081,138.521408 L150.441171,135.528498 C149.982021,135.069349 149.237593,135.069349 148.778443,135.528498 C148.319293,135.987648 148.319293,136.732076 148.778443,137.191226 L151.771353,140.184136 L148.778443,143.177046 C148.319293,143.636196 148.319293,144.380624 148.778443,144.839774 C149.237593,145.298923 149.982021,145.298923 150.441171,144.839774 L153.434081,141.846864 L156.426991,144.839774 C156.88614,145.298923 157.630569,145.298923 158.089719,144.839774 C158.548868,144.380624 158.548868,143.636196 158.089719,143.177046 L155.096809,140.184136 Z M151.633258,120.664437 C152.123353,120.229348 152.7424,120 153.389228,120 C154.039486,120 154.674372,120.231062 155.164602,120.666281 L163.340331,128.005785 L170.616307,128.005785 C171.183371,128.005839 171.671867,128.494356 171.671976,129.061501 L171.671976,135.45539 L176.392328,139.70507 C176.459349,139.772698 176.499837,139.814527 176.538366,139.85911 C176.701331,140.047683 176.784801,140.250705 176.794956,140.540539 L176.794956,166.155545 C176.794956,167.719033 175.492798,169 173.933162,169 L132.844959,169 C131.279488,169 130.000504,167.720159 130.000504,166.155545 L130.00069,140.623632 C129.990401,140.246293 130.093706,140.007093 130.410699,139.68125 L135.088752,135.506163 L135.088756,129.063628 C135.086489,128.530442 135.514666,128.057984 136.07678,128.006029 C136.104734,128.00544 138.552879,128.005359 143.421215,128.005785 L151.633258,120.664437 Z M153.752653,122.246482 C153.636116,122.143429 153.510668,122.094066 153.389228,122.094066 C153.267797,122.094066 153.142376,122.14342 153.028389,122.244179 L146.603142,128.005785 L160.160258,128.005785 L153.752653,122.246482 Z M137.201586,134.392344 C137.201857,135.090437 137.201857,135.090437 137.202112,135.788504 C137.203317,139.183342 137.203103,141.424321 137.200637,143.690257 L152.954419,155.175584 C153.271421,155.40671 153.507034,155.40671 153.824127,155.175519 L169.56071,143.707327 L169.56071,130.117217 L137.200367,130.117217 C137.20044,131.238377 137.200779,132.312124 137.201586,134.392344 Z M171.672142,142.164255 L174.057778,140.431293 L171.672142,138.304459 L171.672142,142.164255 Z M132.736334,140.430953 L135.088918,142.145022 L135.088918,138.324797 L132.736334,140.430953 Z M155.073001,156.886552 C154.062874,157.622706 152.715184,157.622783 151.705361,156.886483 L132.112103,142.600434 L132.112103,166.155378 C132.112103,166.574549 132.424333,166.888401 132.845126,166.888401 L173.933329,166.888401 C174.339124,166.888401 174.68369,166.552515 174.68369,166.155378 L174.68369,142.583278 L155.073001,156.886552 Z" id="subscribed-failure-icon"></path>
                </g>
            </g>
        </g>
    </g>
</svg>