<svg width="20" height="21" viewBox="0 0 20 21" xmlns="http://www.w3.org/2000/svg"><title>Shape</title><path d="M19.526 20.226a1.61 1.61 0 0 1-1.142.474c-.414 0-.828-.158-1.144-.474l-4.542-4.542A8.081 8.081 0 1 1 8.082.97a8.082 8.082 0 0 1 6.846 12.373l4.598 4.597a1.615 1.615 0 0 1 0 2.286zM8.081 3.607a5.444 5.444 0 1 0 .001 10.888 5.444 5.444 0 0 0 0-10.888zm.613 8.245v.754H7.438v-.719c-.928-.121-1.61-.594-1.929-1.342l-.063-.147 1.166-.493.062.147c.162.385.73.676 1.321.676.262 0 1.117-.046 1.117-.644 0-.302-.378-.494-1.158-.587-.887-.099-2.229-.25-2.229-1.686 0-.87.637-1.48 1.713-1.651v-.663h1.256v.667c.504.094 1.151.325 1.519 1.075l.071.147-1.074.498-.074-.123c-.161-.267-.66-.484-1.11-.484-.306 0-1.014.052-1.014.534 0 .308.358.407 1.062.49.944.117 2.37.294 2.37 1.784-.001 1.076-.857 1.651-1.75 1.767z" fill="#323C47"/></svg>