<svg width="18" height="20" viewBox="0 0 18 20" xmlns="http://www.w3.org/2000/svg"><title>icon</title><path d="M.8 14.6c0 .92.644 1.175 1.24 1.738v1.84c0 .562.445 1.022.99 1.022h.992c.545 0 .99-.46.99-1.022v-1.022h7.93v1.022c0 .562.447 1.022.992 1.022h.991c.545 0 .991-.46.991-1.022v-1.84c.595-.563 1.24-.869 1.24-1.738V4.841C17.156 1.263 13.339.8 8.978.8 4.616.8.8 1.263.8 4.841V14.6zm3.578.511a1.506 1.506 0 0 1-1.534-1.533c0-.87.665-1.534 1.534-1.534s1.533.665 1.533 1.534-.664 1.533-1.533 1.533zm9.2 0a1.506 1.506 0 0 1-1.534-1.533c0-.87.665-1.534 1.534-1.534s1.533.665 1.533 1.534-.664 1.533-1.533 1.533zM15.11 10H2.844V4.889h12.267V10z" fill="#5D6872"/></svg>