<svg width="32" height="22" viewBox="0 0 32 22" xmlns="http://www.w3.org/2000/svg"><title>Fill 4</title><path d="M28.375 9.782c1.797-.149 3.015-.963 3.486-2.07-.65.398-2.663.831-3.774.417-.053-.26-.113-.507-.174-.732-.846-3.103-3.745-5.603-6.784-5.3.246-.1.494-.192.742-.275.334-.118 2.297-.438 1.988-1.13-.26-.606-2.658.46-3.108.6.596-.223 1.582-.607 1.686-1.292a4.763 4.763 0 0 0-2.5 1.183c.248-.269.438-.595.478-.947-2.435 1.55-3.857 4.68-5.008 7.717-.902-.875-1.704-1.562-2.423-1.944-2.016-1.081-4.426-2.206-8.21-3.609-.117 1.25.618 2.912 2.738 4.016-.459-.06-1.298.076-1.969.236.274 1.43 1.165 2.611 3.584 3.18-1.104.074-1.677.324-2.194.866.503.995 1.732 2.167 3.938 1.926-2.454 1.055-1 3.011 1 2.72C8.46 18.856 3.084 18.6 0 15.66c8.057 10.957 25.573 6.478 28.182-4.074 1.956.016 3.106-.676 3.818-1.44-1.127.19-2.76-.007-3.625-.365" fill="#323C47" fill-rule="evenodd"/></svg>