<svg width="26" height="26" viewBox="0 0 26 26" xmlns="http://www.w3.org/2000/svg"><title>icon-twitter-hover</title><path d="M13 0C5.82 0 0 5.82 0 13s5.82 13 13 13 13-5.82 13-13S20.18 0 13 0zm6.467 10.081l.01.415c0 4.231-3.219 9.106-9.106 9.106a9.058 9.058 0 0 1-4.906-1.438 6.422 6.422 0 0 0 4.739-1.324 3.206 3.206 0 0 1-2.99-2.223 3.2 3.2 0 0 0 .602.055 3.2 3.2 0 0 0 .844-.11 3.204 3.204 0 0 1-2.568-3.138v-.04c.432.24.925.383 1.45.4a3.2 3.2 0 0 1-.992-4.272 9.083 9.083 0 0 0 6.598 3.345 3.2 3.2 0 0 1 5.455-2.919 6.481 6.481 0 0 0 2.033-.777 3.21 3.21 0 0 1-1.407 1.772 6.416 6.416 0 0 0 1.837-.504 6.47 6.47 0 0 1-1.599 1.652z" fill="#1DA1F2"/></svg>