<svg width="24" height="24" viewBox="0 0 24 24" xmlns="http://www.w3.org/2000/svg"><title>icon-25x25-bag</title><path d="M7.689 10.393a.959.959 0 0 1-.959-.958V5.697A4.953 4.953 0 0 1 11.677.75a4.953 4.953 0 0 1 4.948 4.947v3.738a.959.959 0 0 1-1.917 0V5.697c0-1.67-1.36-3.03-3.03-3.03a3.034 3.034 0 0 0-3.031 3.03v3.738c0 .529-.43.958-.958.958zM22.67 8.24c.265 0 .428.208.365.465L19.683 22.36c-.203.768-1.01 1.39-1.804 1.39H5.42c-.793 0-1.601-.622-1.803-1.39L.263 8.705C.201 8.448.364 8.24.63 8.24h5.143v1.195c0 1.057.86 1.917 1.917 1.917s1.917-.86 1.917-1.917V8.24h4.144v1.195c0 1.057.86 1.917 1.917 1.917s1.916-.86 1.916-1.917V8.24h5.087z" fill="#5D6872"/></svg>