<svg width="22" height="22" viewBox="0 0 22 22" xmlns="http://www.w3.org/2000/svg"><title>icon-pricing</title><path d="M20.717 11.243L11.223 1.68l-.068-.068h-.018a1.937 1.937 0 0 0-1.35-.556L5.28.89 5.082.88a1.984 1.984 0 0 0-1.387.592l-2.223 2.22A2.07 2.07 0 0 0 .88 5.168v.005l.014.19.302 4.397v.096c.045.393.204.782.47 1.103l.249.244 9.322 9.437.14.14a1.36 1.36 0 0 0 1.866-.064l7.474-7.53a1.372 1.372 0 0 0 0-1.943zM5.642 8.023a2.382 2.382 0 1 1 .002-4.763 2.382 2.382 0 0 1-.002 4.764z" fill="#5D6872"/></svg>