<svg width="17" height="24" viewBox="0 0 17 24" xmlns="http://www.w3.org/2000/svg"><title>icon-25x25-laundry</title><path d="M0 4.495v17.777c0 .42.34.76.76.76h15.48a.76.76 0 0 0 .76-.76V4.495H0zm8.5 3.553a4.93 4.93 0 0 0-4.923 4.924A4.929 4.929 0 0 0 8.5 17.895a4.932 4.932 0 0 0 4.82-3.918h.872c-.478 2.711-2.846 4.78-5.691 4.78a5.791 5.791 0 0 1-5.785-5.786 5.792 5.792 0 0 1 5.785-5.785c2.847 0 5.213 2.068 5.69 4.78h-.871A4.933 4.933 0 0 0 8.5 8.048zm3.846 4.924a3.846 3.846 0 1 1-7.692 0 3.846 3.846 0 0 1 7.692 0zM16.241 0H.76A.76.76 0 0 0 0 .76v2.849h17V.759A.76.76 0 0 0 16.24 0zM6.03 2.533H1.614V1.25h4.417v1.283zm4.1 0a.641.641 0 1 1 0-1.283.641.641 0 0 1 0 1.283zm2.47 0a.641.641 0 1 1 0-1.283.641.641 0 0 1 0 1.283zm2.469 0a.641.641 0 1 1 0-1.282.641.641 0 0 1 0 1.282z" fill="#5D6872"/></svg>