<svg width="21" height="21" viewBox="0 0 21 21" xmlns="http://www.w3.org/2000/svg"><title>icon-25x25-dishwasher</title><path d="M.875 21h19.25C21 21 21 21 21 20.125V.875C21 0 21 0 20.125 0H.875C0 0 0 0 0 .875v19.25C0 21 0 21 .875 21zm13.265-2.625c-.315 0-.315 0-.315-.595 0-.263 1.313 0 1.313-.84v-2.468c-1.89-.314-2.52-1.977-1.873-3.972h4.97c.595 2.012.053 3.658-1.872 3.973v2.467c0 .875 1.312.577 1.312.84 0 .595 0 .595-.315.595h-3.22zM4.077 4.253c-.63 0-1.085-.455-1.085-1.068 0-.647.508-1.085 1.085-1.085a1.09 1.09 0 0 1 1.085 1.085c0 .543-.42 1.068-1.085 1.068zM0 7.875v-1.75h21v1.75H0zm11.375 10.5h-.507c-.718 0-1.243-.525-1.243-1.242v-5.39c0-.718.525-1.243 1.243-1.243h.507v7.875zm-3.5 0h-.507c-.718 0-1.243-.525-1.243-1.242v-5.39c0-.718.525-1.243 1.243-1.243h.507v7.875zm-3.5 0h-.507c-.718 0-1.243-.525-1.243-1.242v-5.39c0-.718.525-1.243 1.243-1.243h.507v7.875zM8.26 4.288c-.612-.018-1.067-.49-1.085-1.103A1.09 1.09 0 0 1 8.26 2.1c.63.017 1.103.473 1.103 1.085S8.89 4.27 8.26 4.288z" fill="#5D6872"/></svg>