<svg width="25" height="22" viewBox="0 0 25 22" xmlns="http://www.w3.org/2000/svg"><title>icon-25x25-heating</title><path d="M12.516 0L8.123 3.887V2.276H5.689v3.76L0 11.063h2.718v10.145h19.564V11.062H25L12.516 0zM9.608 18.015c-.095.063-.19.127-.316.127a.508.508 0 0 1-.348-.158c-.158-.19-.158-.506.032-.664.537-.474.853-1.106.853-1.77 0-.664-.284-1.296-.821-1.802a3.256 3.256 0 0 1-1.138-2.496c0-.949.442-1.834 1.17-2.466.189-.158.505-.158.663.032.158.19.158.506-.032.664-.537.474-.853 1.106-.853 1.77 0 .663.284 1.295.822 1.801a3.256 3.256 0 0 1 1.137 2.497c.032.916-.41 1.801-1.169 2.465zm3.034 0c-.095.063-.19.127-.316.127a.508.508 0 0 1-.347-.158c-.159-.19-.159-.506.031-.664.537-.474.853-1.106.853-1.77 0-.664-.284-1.296-.821-1.802a3.256 3.256 0 0 1-1.138-2.496c0-.949.442-1.834 1.17-2.466.189-.158.505-.158.663.032.158.19.158.506-.032.664-.537.474-.853 1.106-.853 1.77 0 .663.285 1.295.822 1.801a3.256 3.256 0 0 1 1.138 2.497c0 .948-.411 1.801-1.17 2.465zm3.319.032c-.095.063-.19.126-.316.126a.508.508 0 0 1-.348-.158c-.158-.19-.158-.506.032-.664.537-.474.853-1.106.853-1.77 0-.663-.284-1.295-.822-1.801a3.256 3.256 0 0 1-1.137-2.497c0-.948.442-1.833 1.169-2.465.19-.158.506-.158.664.032.158.19.158.505-.032.663-.537.474-.853 1.106-.853 1.77 0 .664.284 1.296.821 1.802a3.256 3.256 0 0 1 1.138 2.497c0 .948-.41 1.801-1.17 2.465z" fill="#5D6872"/></svg>