<svg width="23" height="23" viewBox="0 0 23 23" xmlns="http://www.w3.org/2000/svg"><title>icon-25x25-pets</title><path d="M22.75 7.876c.38 1.017.324 2.314-.149 3.469-.626 1.525-1.868 2.55-3.09 2.55-.3 0-.59-.062-.862-.186-1.347-.616-1.789-2.636-1.028-4.697.614-1.665 1.833-2.783 3.032-2.783.281 0 .557.06.82.178.573.259 1.015.767 1.277 1.47zM5.38 9.012c.76 2.061.318 4.08-1.03 4.697a2.05 2.05 0 0 1-.861.187c-1.222 0-2.464-1.026-3.09-2.551C-.074 10.19-.13 8.893.25 7.876c.263-.702.705-1.21 1.278-1.469.263-.118.539-.178.82-.178 1.2 0 2.418 1.118 3.032 2.783zm2.667-.231c-1.648-.072-3.123-1.877-3.36-4.11-.143-1.35.211-2.695.947-3.6.508-.623 1.15-.99 1.855-1.06.116-.01.344-.011.344-.011 1.599.07 2.789 1.755 3.027 4.013.156 1.466-.05 2.89-.79 3.8-.46.564-1.044.895-1.69.959a2.36 2.36 0 0 1-.333.009zm3.453 1.76c3.833 0 7.667 4.557 7.667 8.933 0 1.305-.655 2.356-1.298 2.786-.794.531-1.354.74-2.518.74-1.383 0-1.756-.484-2.404-.91-.468-.31-.873-.576-1.447-.576-.574 0-.979.267-1.447.575-.648.427-1.02.911-2.404.911-1.164 0-1.724-.209-2.518-.74-.643-.43-1.298-1.48-1.298-2.786 0-4.376 3.834-8.932 7.667-8.932zm3.131-1.78c-.646-.064-1.23-.395-1.69-.96-.74-.909-.946-2.333-.79-3.799C12.39 1.744 13.58.07 15.178 0c0 0 .252.008.369.019.705.07 1.322.418 1.83 1.041.736.905 1.09 2.25.947 3.6-.236 2.233-1.712 4.038-3.36 4.11a2.35 2.35 0 0 1-.333-.01z" fill="#5D6872"/></svg>