<svg width="22" height="25" viewBox="0 0 22 25" xmlns="http://www.w3.org/2000/svg"><title>icon-25x25-coffee</title><g fill="none" fill-rule="evenodd"><path d="M-2 1h25v25H-2z"/><path d="M10.737 7.508a4.37 4.37 0 0 0-.433.377l-.023.025a5.41 5.41 0 0 0-.269.35l-.015.022a3.027 3.027 0 0 0-.112.213l-.02.041a1.25 1.25 0 0 0-.08.189 2.485 2.485 0 0 0-.064.22l-.027.11a.979.979 0 0 0-.015.108v.027a1.77 1.77 0 0 0 0 .46v.041c.007.058.018.115.032.172v.03a1.902 1.902 0 0 0 .171.427l.027.05c.052.085.11.166.172.244l.02.022.024.027c.05.055.103.108.159.157l.024.02a1.61 1.61 0 0 0 .384.242l.03.012a.78.78 0 0 0 .142.046h.012c.1.021.204-.003.284-.066a.34.34 0 0 0 .13-.244v-.213l.02-.199.026-.151a1.104 1.104 0 0 1 .11-.29l.017-.021.027-.035.047-.046.063-.047h.015l.083-.053c.04-.021.078-.044.115-.069a.837.837 0 0 0 .152-.078l.086-.044.14-.074.283-.156a2.97 2.97 0 0 0 .698-.6c.21-.247.372-.533.475-.842a2.35 2.35 0 0 0-.05-1.618A2.203 2.203 0 0 0 13 5.457a1.655 1.655 0 0 0-.215-.159l-.032-.02a.871.871 0 0 0-.122-.066.34.34 0 0 0-.463.262l-.017.1c0 .025 0 .057-.017.094l-.022.11c-.042.215-.1.427-.174.634-.035.097-.08.19-.132.279-.044.072-.097.14-.157.2a1.724 1.724 0 0 1-.198.174c-.078.059-.166.12-.264.181l-.15.074-.039.024-.06.04-.13.087-.071.037zm.178-4.315c.084.403.09.819.02 1.224a3.483 3.483 0 0 1-.49 1.246 4.114 4.114 0 0 1-.84.964l-.361.277-.18.132-.12.085a1.08 1.08 0 0 1-.19.14c-.05.044-.102.086-.157.125a1.296 1.296 0 0 1-.105.093l-.027.022a.999.999 0 0 1-.076.078l-.022.025-.063.08a.62.62 0 0 1-.032.06l-.02.033v.025c0 .032-.02.061-.034.095-.037.12-.06.245-.069.37v.225l-.01.296a.6.6 0 0 0 .015.176l.017.135a.36.36 0 0 1-.357.404h-.027a1.145 1.145 0 0 1-.188-.034h-.037a2.124 2.124 0 0 1-.582-.252l-.035-.02a2.47 2.47 0 0 1-.244-.176l-.045-.034-.022-.02a3.231 3.231 0 0 1-.279-.294l-.044-.059a2.186 2.186 0 0 1-.23-.364 2.645 2.645 0 0 1-.083-.179l-.017-.041a1.98 1.98 0 0 1-.073-.22l-.018-.062a2.377 2.377 0 0 1-.093-.622v-.051a1.285 1.285 0 0 1 0-.14l.015-.156c0-.105.025-.21.044-.318.016-.091.039-.18.069-.267l.02-.064a5.89 5.89 0 0 1 .11-.313l.012-.027a6.94 6.94 0 0 1 .3-.543l.02-.03a7.117 7.117 0 0 1 .519-.607l.09-.085c.052-.05.108-.098.165-.15l.098-.088.022-.02.21-.168c.13-.11.245-.218.348-.32.092-.095.178-.196.257-.302a1.74 1.74 0 0 0 .193-.343 2.43 2.43 0 0 0 .137-.443 6.44 6.44 0 0 0 .118-.95v-.446a.362.362 0 0 1 .462-.34c.06.016.118.036.174.061l.046.02c.112.049.219.106.321.171.402.258.737.607.979 1.018a3.2 3.2 0 0 1 .39.967zm10.6 13.897a4.056 4.056 0 0 0-3.935-5.034H1.26a1.065 1.065 0 0 0-1.065 1.123c.128 1.945.461 3.87.994 5.744a7.788 7.788 0 0 0 2.273 3.652H2.058a1.183 1.183 0 1 0 0 2.367h13.31a1.183 1.183 0 1 0 0-2.367H13.96a7.79 7.79 0 0 0 1.801-2.408h1.819a4.056 4.056 0 0 0 3.935-3.077zm-2.383-.592a1.596 1.596 0 0 1-1.552 1.224h-1.036c.25-1.055.439-2.123.566-3.2h.47a1.598 1.598 0 0 1 1.552 1.986v-.01z" fill="#5D6872" fill-rule="nonzero"/></g></svg>