<svg width="15" height="18" viewBox="0 0 15 18" xmlns="http://www.w3.org/2000/svg"><path d="M15 2.004v1.123a.721.721 0 0 1-.721.722H.72A.721.721 0 0 1 0 3.127V2.004c0-.398.323-.721.721-.721h4.672V.72c0-.398.323-.721.721-.721h2.772c.398 0 .721.323.721.721v.562h4.672c.398 0 .721.323.721.721zM3.488 15.363v-7.62h1.27v7.62h-1.27zm3.55 0v-7.62h1.27v7.62h-1.27zm3.549 0v-7.62h1.27v7.62h-1.27zm-9.452 1.31c0 .733.594 1.327 1.327 1.327h10.077c.732 0 1.326-.594 1.326-1.326V5.27H1.135v11.404z" fill="#323C47"/></svg>