<svg width="24" height="24" viewBox="0 0 24 24" xmlns="http://www.w3.org/2000/svg"><title>icon-google</title><path d="M10.613 7.914c-.075.42-.242.831-.505 1.233-.542.564-1.217.864-2.031.894-.644 0-1.215-.2-1.715-.601-.5-.402-.908-.89-1.226-1.463-.653-1.233-.978-2.42-.978-3.558a3.936 3.936 0 0 1 .668-2.343c.558-.669 1.251-1.012 2.088-1.033.633.02 1.192.211 1.679.569.475.38.862.875 1.153 1.481.623 1.261.935 2.515.935 3.758 0 .287-.023.64-.068 1.063zm1.003 9.277c.51.592.766 1.29.766 2.09 0 .985-.375 1.79-1.121 2.415-.767.637-1.877.964-3.332.985-1.624-.02-2.9-.39-3.835-1.108-.983-.717-1.474-1.63-1.474-2.738 0-.564.112-1.045.34-1.444.195-.38.436-.699.72-.954.296-.247.587-.437.871-.57.284-.122.505-.215.664-.276a12.648 12.648 0 0 1 1.96-.446c.65-.062 1.054-.08 1.21-.062.265 0 .497.009.692.032 1.151.82 1.997 1.512 2.539 2.076zM15 0l-1.906 1.136H11.19c.194.123.412.301.653.538.234.246.46.548.685.906.211.339.402.738.566 1.2.136.46.205 1 .205 1.614-.018 1.13-.262 2.03-.733 2.706-.23.33-.473.631-.73.908-.286.276-.589.56-.91.845a4.278 4.278 0 0 0-.511.662 1.484 1.484 0 0 0-.276.892c0 .33.094.601.283.815.159.204.316.385.468.539l1.046.875c.65.546 1.222 1.143 1.713 1.8.462.666.703 1.537.723 2.612 0 1.528-.662 2.882-1.983 4.062-1.37 1.221-3.346 1.85-5.93 1.89-2.163-.019-3.777-.49-4.844-1.41C.539 21.73 0 20.702 0 19.504c0-.583.175-1.233.528-1.95.339-.716.953-1.345 1.844-1.886a9.5 9.5 0 0 1 3.15-1.168c1.09-.163 1.995-.256 2.716-.274-.223-.3-.42-.62-.596-.96-.202-.329-.302-.726-.302-1.19 0-.277.036-.511.113-.695l.19-.54c-.351.039-.68.06-.993.06-1.642-.021-2.895-.549-3.757-1.584-.903-.964-1.355-2.088-1.355-3.368 0-1.548.639-2.951 1.92-4.212C4.332.999 5.244.517 6.19.29A12.95 12.95 0 0 1 8.825 0H15zm5.78 3.221H24v1.56h-3.22V8h-1.56V4.781H16v-1.56h3.22V0h1.56v3.221z" fill="#323C47" fill-rule="evenodd"/></svg>