<svg width="25" height="23" viewBox="0 0 25 23" xmlns="http://www.w3.org/2000/svg"><title>icon-25x25-outdoor</title><path d="M23.291 16.044h-9.76v-.855h9.76v.855zm.855.765H25v5.441H0v-1.47h8.103c.157-.4.243-.888.243-1.326 0-.335.022-1.239.05-2.275L5.96 14.406c-.045.001-.089.006-.135.006-2.644 0-4.787-2.016-4.787-4.504 0-.474.079-.93.223-1.359a3.617 3.617 0 0 1-.924-2.404c0-2.078 1.792-3.763 4.002-3.763.334 0 .658.043.968.115C5.658 1.068 7.018 0 8.645 0c1.584 0 2.913 1.01 3.307 2.383l.018-.001c1.836 0 3.324 1.4 3.324 3.127a2.99 2.99 0 0 1-.704 1.92c.175.467.274.968.274 1.492 0 2.487-2.143 4.503-4.787 4.503-.03 0-.061-.003-.093-.005.044 1.642.135 5.17.135 6.035 0 .488.079.953.244 1.327h1.548v-3.972h.854v1.618h11.38V16.81zM8.439 15.716c.023-.792.047-1.541.063-2.073a4.917 4.917 0 0 1-1.508.628l1.445 1.445zm5.946 3.566v1.499h8.052v-1.5h-8.052zm-1.619 1.499h.765v-1.5h-.765v1.5zm11.38 0v-1.5h-.855v1.5h.855zM13.53 17.663h9.76v-.854h-9.76v.854zm8.333-12.115a2.15 2.15 0 1 0 0-4.298 2.15 2.15 0 0 0 0 4.298z" fill="#5D6872"/></svg>