<svg width="17" height="21" viewBox="0 0 17 21" xmlns="http://www.w3.org/2000/svg"><title>icon-share</title><path d="M13.51 13.106a3.3 3.3 0 0 0-2.29.93l-4.478-2.465c.151-.377.252-.805.252-1.258 0-.453-.076-.88-.252-1.258l4.78-2.666a3.417 3.417 0 0 0 1.987.654c1.862 0 3.397-1.535 3.397-3.422C16.906 1.735 15.37.2 13.509.2c-1.861 0-3.396 1.535-3.396 3.421 0 .579.151 1.107.403 1.585L5.862 7.797c-.63-.578-1.46-.955-2.39-.955A3.479 3.479 0 0 0 0 10.313a3.479 3.479 0 0 0 3.472 3.472c.93 0 1.76-.377 2.39-.956l4.478 2.465c-.176.428-.252.88-.252 1.359 0 1.962 1.535 3.547 3.396 3.547 1.862 0 3.397-1.585 3.397-3.547.025-1.937-1.51-3.547-3.372-3.547z" fill="#5D6872"/></svg>