<svg width="21" height="23" viewBox="0 0 21 23" xmlns="http://www.w3.org/2000/svg"><title>icon-25x25-scissors</title><g fill="none" fill-rule="evenodd"><path d="M-2-1h25v25H-2z"/><path d="M18.077 4.295c.706-1.677.917-3.285-.282-4.295l-7.636 9.857-.9 1.18s-1.464 2.055-1.975 3.013c-.512.958-1.023 2.02-1.446 2.772-.372.661-.553.782-.76.593a3.03 3.03 0 0 0-.081-.09l-.006-.006a1.388 1.388 0 0 0-.246-.23 2.766 2.766 0 0 0-1.782-.66C1.327 16.429 0 17.899 0 19.714 0 21.53 1.327 23 2.963 23c1.34 0 2.47-.986 2.837-2.34v.003s.708-2.13 1.73-3.67c1.024-1.54 2.629-2.207 2.629-2.207l1.693-1.643s5.52-7.17 6.225-8.848zM2.963 21.357c-.817 0-1.48-.737-1.48-1.643s.663-1.643 1.48-1.643 1.48.737 1.48 1.643-.663 1.643-1.48 1.643zm7.21-8.214a.835.835 0 0 1-.848-.822c0-.453.38-.821.848-.821.468 0 .848.368.848.821 0 .454-.38.822-.848.822zm-2.581-1.168C6 9.872 2.782 5.55 2.256 4.295 1.55 2.618 1.339 1.01 2.538 0l7.098 9.163-.155.201-.003.003-.002.002-.899 1.181-.008.01-.008.011c-.033.047-.483.68-.97 1.404zm9.778 4.454c1.636 0 2.976 1.47 2.976 3.285 0 1.815-1.34 3.286-2.976 3.286-1.34 0-2.471-.986-2.838-2.34v.003s-.707-2.13-1.73-3.67c-.569-.856-1.318-1.443-1.87-1.795l1.52-1.475.043-.042.036-.047.155-.202c.143.23.27.442.363.618.511.958 1.023 2.02 1.446 2.772.372.661.553.782.759.593l.082-.09.006-.006c.06-.076.146-.154.246-.23a2.766 2.766 0 0 1 1.782-.66zm0 4.928c.817 0 1.48-.737 1.48-1.643s-.663-1.643-1.48-1.643-1.48.737-1.48 1.643.663 1.643 1.48 1.643z" fill="#5D6872" fill-rule="nonzero"/></g></svg>