<svg width="25" height="18" viewBox="0 0 25 18" xmlns="http://www.w3.org/2000/svg"><title>icon-25x25-dogs</title><path d="M12.357 0a8.183 8.183 0 0 0-4.524 1.302C6.44 3.552 5.783 6.574 5.114 9.06c-.128.476-.263.921-.4 1.35a.363.363 0 0 1 .01.019c.346 1.757 1.332 3.63 2.7 5.047 1.309 1.356 2.96 2.289 4.734 2.367v-2.87c-.555-.174-1.008-.406-1.331-.751-.352-.377-.522-.88-.513-1.474 0-.097.052-.192.133-.247.56-.36 1.29-.518 2.015-.513.725.005 1.452.169 2.015.503a.31.31 0 0 1 .143.276c-.024.597-.23 1.094-.609 1.464-.316.31-.739.527-1.245.694v2.918c1.73-.112 3.29-1.014 4.563-2.329 1.362-1.407 2.38-3.288 2.88-5.133-.88-2.654-1.547-6.374-3.194-9.04A9.159 9.159 0 0 0 12.357 0zM9.411 5.295c.82 0 1.492.67 1.492 1.492S10.232 8.28 9.411 8.28a1.496 1.496 0 0 1-1.493-1.493c0-.821.671-1.492 1.493-1.492zm5.94 0c.822 0 1.493.67 1.493 1.492s-.671 1.493-1.492 1.493a1.496 1.496 0 0 1-1.493-1.493c0-.821.671-1.492 1.493-1.492zM7.016 1.493C5.747 3.792 5.141 6.61 4.525 8.898c-.335 1.24-.677 2.331-1.093 3.07C1.75 14.807.022 10.378 0 8.907c-.003-1.574.556-3.115 1.055-3.821a.258.258 0 0 0 .019-.029c.201-.362.899-1.176 2.015-1.93a10.86 10.86 0 0 1 3.926-1.634zm10.818.028c1.626.326 2.977.963 4.001 1.626 1.156.747 1.898 1.56 2.092 1.91a.18.18 0 0 0 .019.029c.499.706 1.058 2.247 1.055 3.821-.264 1.635-1.465 5.7-3.213 3.432-.37-.492-.7-1.238-.998-2.13-.809-2.426-1.427-5.928-2.956-8.688z" fill="#5D6872" fill-rule="evenodd"/></svg>