<svg width="22" height="15" viewBox="0 0 22 15" xmlns="http://www.w3.org/2000/svg"><title>icon-satellite</title><path d="M4.258 8.326c1.689 1.02 3.688 2.028 5.821 2.929 1.942.82 3.83 1.485 5.534 1.958a7.08 7.08 0 0 1-4.38 1.5c-3.717 0-6.756-2.823-6.975-6.387zm.71-3.458A6.896 6.896 0 0 1 6.97 2.046 6.425 6.425 0 0 1 11.12.52c3.522 0 6.402 2.871 6.61 6.493a7.158 7.158 0 0 1-.653 3.442 24.712 24.712 0 0 1-.786-.21c-1.604-.459-3.406-1.134-5.21-1.952C8.779 7.25 6.62 6.04 4.968 4.868zm13.494 4.024c2.462 1.57 3.775 2.749 3.503 3.644-.157.514-.835.758-1.89.758-2.153 0-5.874-1.017-9.937-2.835C4.082 7.749-.442 4.285.034 2.722c.157-.514.842-.883 1.89-.758.939.111 2.058.398 3.163.81-.33.386-.38.505-.63.948C3.455 3.5 2.582 3.38 1.924 3.38c-.089 0-.17.002-.242.006.088.11.199.238.34.385.477.497 1.162 1.07 1.982 1.658 1.776 1.273 4.15 2.598 6.682 3.73 1.902.852 3.804 1.555 5.5 2.033 1.567.442 2.948.686 3.889.686.089 0 .17-.002.242-.006a5.711 5.711 0 0 0-.34-.385c-.434-.453-1.043-.97-1.768-1.502.151-.49.2-.582.253-1.093z" fill="#5D6872"/></svg>