<svg width="25" height="17" viewBox="0 0 25 17" xmlns="http://www.w3.org/2000/svg"><title>icon-25x25-gym</title><path d="M7.023.75c1.104 0 1.998.894 1.998 1.997v11.598a1.997 1.997 0 1 1-3.995 0V2.747C5.026 1.644 5.92.75 7.023.75zm-4.06 3.028c.641 0 1.16.52 1.16 1.16v7.216a1.16 1.16 0 0 1-2.319 0V9.448H.902a.902.902 0 1 1 0-1.804h.902V4.938c0-.64.52-1.16 1.16-1.16zM17.978.75c1.103 0 1.997.894 1.997 1.997v11.598a1.997 1.997 0 1 1-3.995 0V2.747c0-1.103.894-1.997 1.998-1.997zm6.121 6.894a.902.902 0 1 1 0 1.805h-.902v2.706a1.16 1.16 0 0 1-2.32 0V4.938a1.16 1.16 0 0 1 2.32 0v2.706h.902zm-14.175 0h5.155v1.804H9.922V7.644z" fill="#5D6872"/></svg>