<svg width="25" height="23" viewBox="0 0 25 23" xmlns="http://www.w3.org/2000/svg"><title>icon-25x25-bicycle</title><g fill="none" fill-rule="evenodd"><path d="M0-2h25v25H0z"/><path d="M16.346 3.846a1.915 1.915 0 0 0 1.923-1.923A1.915 1.915 0 0 0 16.346 0a1.915 1.915 0 0 0-1.923 1.923c0 1.068.855 1.923 1.923 1.923zm3.365 7.692c-2.908 0-5.288 2.38-5.288 5.289s2.38 5.288 5.288 5.288c2.91 0 5.289-2.38 5.289-5.288 0-2.909-2.38-5.289-5.289-5.289zm0 8.654a3.344 3.344 0 0 1-3.365-3.365 3.344 3.344 0 0 1 3.365-3.365 3.344 3.344 0 0 1 3.366 3.365 3.344 3.344 0 0 1-3.366 3.365zM15.817 9.066h4.375V7.234H16.91l-1.932-3.441c-.313-.535-.886-.908-1.511-.908-.469 0-.937.213-1.25.534L8.213 7.372a1.89 1.89 0 0 0-.52 1.282c0 .694.513 1.228 1.034 1.549l3.43 2.19v4.915h1.785v-6.41l-2.195-1.832 2.396-2.549 1.674 2.549zM5.288 11.538C2.38 11.538 0 13.918 0 16.827s2.38 5.288 5.288 5.288c2.91 0 5.289-2.38 5.289-5.288 0-2.909-2.38-5.289-5.289-5.289zm0 8.654a3.345 3.345 0 0 1-3.365-3.365 3.345 3.345 0 0 1 3.365-3.365 3.345 3.345 0 0 1 3.366 3.365 3.345 3.345 0 0 1-3.366 3.365z" fill="#5D6872" fill-rule="nonzero"/></g></svg>