<svg width="25" height="23" viewBox="0 0 25 23" xmlns="http://www.w3.org/2000/svg"><title>icon-25x25-furniture</title><path d="M22.754 8.863h-8.353V5.687a.75.75 0 0 0-.75-.75h-3.014a.75.75 0 0 0-.75.75v3.176H8.822c-.957 0-1.735.778-1.735 1.735v2.68H24.49v-2.68c0-.957-.779-1.735-1.736-1.735zm-9.853 0h-1.515V6.437h1.515v2.426zm3.325 3.518h-.875a.5.5 0 0 1 0-1h.875a.5.5 0 1 1 0 1zM7.087 17.74v-3.462h8.202v6.497H8.822c-.08 0-.158-.013-.235-.024v.895a.75.75 0 1 1-1.5 0V17.74zm9.2 3.035v-6.497h8.203v7.368a.75.75 0 1 1-1.5 0v-.895c-.077.011-.155.024-.236.024h-6.466zm-10.617.121a.75.75 0 1 1 0 1.5H2.043a.75.75 0 0 1 0-1.5h1.064V7.08H.5a.5.5 0 0 1-.493-.581L.992.472a.5.5 0 0 1 .493-.419H6.23a.5.5 0 0 1 .493.42l.985 6.025a.497.497 0 0 1-.113.405.497.497 0 0 1-.38.176H4.606v13.817H5.67z" fill="#5D6872"/></svg>