<svg width="22" height="22" viewBox="0 0 22 22" xmlns="http://www.w3.org/2000/svg"><title>icon-3dview</title><path d="M20.558 7.32c.31 0 .562.227.562.509v8.131c0 .414-.243.779-.608.978l-.011.006-7.728 4.101-.023.013a.609.609 0 0 1-.269.062c-.311 0-.561-.228-.561-.51v-8.223c0-.395.22-.742.554-.948l.003-.002.172-.089 7.584-3.935.101-.05a.592.592 0 0 1 .224-.043zm-.689-2.613s.331.132.331.42c0 .327-.335.506-.335.506l-8.167 4.27-.114.058a1.4 1.4 0 0 1-1.131.002l-.13-.066-8.152-4.262S1.8 5.416 1.8 5.126c0-.273.357-.42.357-.42l8.12-3.614s.474-.212.738-.212c.265 0 .74.212.74.212l8.114 3.615zM9.526 11.439c.334.206.554.553.554.948v8.222c0 .283-.252.511-.561.511a.598.598 0 0 1-.294-.075l-7.729-4.1-.009-.007c-.364-.2-.607-.563-.607-.978V7.83c0-.282.252-.509.561-.509a.58.58 0 0 1 .225.043l.1.05 7.583 3.935.177.09z" fill="#5D6872"/></svg>