<svg width="19" height="19" viewBox="0 0 19 19" xmlns="http://www.w3.org/2000/svg"><title>icon-edit-hover</title><path d="M0 3.838a.891.891 0 0 1 .89-.89h9.535l-.808 1.78H.89a.891.891 0 0 1-.89-.89zm0 10.928a.892.892 0 0 0 .89.89h4.78c.01-.597.07-1.192.176-1.78H.89a.891.891 0 0 0-.89.89zm.89-6.4h7.077l.809-1.78H.89a.89.89 0 0 0 0 1.78zM0 11.11a.892.892 0 0 0 .89.89h5.464c.097-.266.205-.528.323-.787l.451-.992H.89a.891.891 0 0 0-.89.89zm17.514-6.2l-.984-.441.387-.845a2.32 2.32 0 1 0-4.224-1.917L8.085 11.852a9.735 9.735 0 0 0-.682 5.927.603.603 0 0 0 .893.406 9.737 9.737 0 0 0 4.013-4.417l3.548-7.808.979.443c.073.033.106.12.073.193l-1.905 4.196a.822.822 0 1 0 1.497.68l1.905-4.197c.404-.9.005-1.956-.892-2.365z" fill="#5D6872"/></svg>