<svg width="25" height="16" viewBox="0 0 25 16" xmlns="http://www.w3.org/2000/svg"><title>icon-25x25-cash</title><g fill="none" fill-rule="evenodd"><path d="M0-4h25v25H0z"/><path d="M.708 0A.709.709 0 0 0 0 .713v9.975a.71.71 0 0 0 1.421 0V1.42h18.263a.71.71 0 1 0 0-1.421H.708zm2.339 2.339a.706.706 0 0 0-.708.708v9.98c0 .393.314.708.708.708a.709.709 0 0 0 .713-.709V3.76h18.263a.71.71 0 1 0 0-1.421H3.047zm2.264 2.264a.713.713 0 0 0-.713.713v9.975c0 .39.32.708.713.708h18.976A.71.71 0 0 0 25 15.29V5.316a.713.713 0 0 0-.713-.713H5.311zm3.43 1.416h12.117A3.52 3.52 0 0 0 23.58 8.74v3.108a3.517 3.517 0 0 0-2.72 2.73H8.74a3.512 3.512 0 0 0-2.716-2.73V8.74A3.507 3.507 0 0 0 8.74 6.02zm6.06.676a3.607 3.607 0 0 0 0 7.212 3.603 3.603 0 0 0 3.602-3.606 3.605 3.605 0 0 0-3.601-3.606zm-.39 1.08h.619v.56c.42.012.705.105.927.205l-.191.717a1.968 1.968 0 0 0-.913-.219c-.413 0-.55.183-.55.36 0 .202.225.344.769.54.754.267 1.048.615 1.048 1.192.007.566-.386 1.046-1.113 1.165v.652h-.63v-.6c-.424-.022-.835-.142-1.076-.276l.191-.74c.265.147.636.28 1.049.28.367 0 .62-.147.62-.392 0-.241-.206-.397-.68-.555-.68-.229-1.142-.547-1.142-1.16 0-.563.394-1 1.071-1.127v-.601z" fill="#5D6872" fill-rule="nonzero"/></g></svg>