<svg width="25" height="25" viewBox="0 0 25 25" xmlns="http://www.w3.org/2000/svg"><title>icon-25x25-pool</title><path d="M21.25 11.078C23.563 12.549 25 14.6 25 16.875 25 21.363 19.405 25 12.5 25S0 21.363 0 16.875c0-3.637 3.681-6.718 8.75-7.751v2.515c-3.81.817-6.25 2.79-6.25 4.611 0 2.367 4.11 5 10 5s10-2.633 10-5c0-.773-.448-1.575-1.25-2.308v-2.864zM12.5 13.75c-.689 0-1.25-.561-1.25-1.25V3.125A3.13 3.13 0 0 1 14.375 0 3.13 3.13 0 0 1 17.5 3.125v.625c0 .689-.561 1.25-1.25 1.25S15 4.439 15 3.75v-.625a.626.626 0 0 0-1.25 0v4.852l2.5 1.25V8.125A3.13 3.13 0 0 1 19.375 5 3.13 3.13 0 0 1 22.5 8.125v.625c0 .689-.561 1.25-1.25 1.25S20 9.439 20 8.75v-.625a.626.626 0 0 0-1.25 0v8.125c0 .689-.561 1.25-1.25 1.25s-1.25-.561-1.25-1.25v-4.227l-2.5-1.25V12.5c0 .689-.561 1.25-1.25 1.25z" fill="#5D6872"/></svg>