<svg width="25" height="17" viewBox="0 0 25 17" xmlns="http://www.w3.org/2000/svg"><title>icon-25x25-cat</title><path d="M24.398 11.434l-2.874-.15c.05-.175.1-.375.15-.55l2.75-.225a.647.647 0 0 0 .424-.225c.1-.125.15-.3.15-.475-.025-.3-.3-.55-.65-.55h-.05l-2.524.2c-.05-1.8-2.2-9.024-2.3-9.324-.025-.05-.05-.1-.125-.125-.05-.025-.125 0-.175.025L15.75 2.51a10.997 10.997 0 0 0-3.25-.475c-1.125 0-2.225.15-3.25.475L5.8.06C5.75.01 5.677.01 5.627.01A.301.301 0 0 0 5.5.135c-.1.3-2.25 7.55-2.3 9.324l-2.5-.2a.638.638 0 0 0-.674.575.627.627 0 0 0 .125.475c.1.125.275.2.425.225l2.75.225c.024.175.074.375.15.55l-2.875.125a.64.64 0 0 0-.6.675c.025.35.3.6.625.6L4 12.534c1.5 2.724 4.8 4.474 8.499 4.474 3.7 0 7-1.75 8.499-4.474l3.35.175h.024c.35 0 .625-.275.625-.6a.64.64 0 0 0-.6-.675zM9.425 9.484c-.6 0-1.074-.475-1.074-1.075s.474-1.075 1.074-1.075c.6 0 1.075.475 1.075 1.075-.025.575-.5 1.075-1.075 1.075zm4.55 2.35l-1.475.9-1.475-.875c-.1-.125-.175-.275-.175-.425 0-.55.725-.975 1.625-.975s1.625.45 1.625.975c.025.125-.025.275-.125.4zm1.6-2.35c-.6 0-1.075-.475-1.075-1.075s.475-1.075 1.075-1.075 1.074.475 1.074 1.075c0 .575-.474 1.075-1.074 1.075z" fill="#5D6872"/></svg>