<svg width="19" height="25" viewBox="0 0 19 25" xmlns="http://www.w3.org/2000/svg"><title>icon-25x25-elevator</title><path d="M17.604 13.81H1.254a.778.778 0 0 0-.707.455.826.826 0 0 0 .126.86l8.188 9.147a.732.732 0 0 0 .58.253c.228 0 .43-.101.582-.253l8.187-9.147a.81.81 0 0 0 .127-.86.844.844 0 0 0-.733-.454zm-8.187 8.744l-6.419-7.177h12.837l-6.418 7.177zm-8.188-11.32a.844.844 0 0 1-.733-.456.81.81 0 0 1 .127-.859L8.81.771c.278-.328.86-.328 1.162 0L18.16 9.92a.826.826 0 0 1 .126.86.778.778 0 0 1-.707.454H1.229z" fill="#5D6872"/></svg>