<svg width="26" height="26" viewBox="0 0 26 26" xmlns="http://www.w3.org/2000/svg"><title>icon-email-share-hover</title><path d="M13 26a12.71 12.71 0 0 1-3.458-.468 13.188 13.188 0 0 1-3.107-1.313 12.961 12.961 0 0 1-2.626-2.028 12.959 12.959 0 0 1-2.028-2.626 13.183 13.183 0 0 1-1.313-3.107A12.71 12.71 0 0 1 0 13c0-1.196.156-2.349.468-3.458.312-1.11.75-2.145 1.313-3.107a12.961 12.961 0 0 1 2.028-2.626 12.961 12.961 0 0 1 2.626-2.028A13.182 13.182 0 0 1 9.542.468 12.711 12.711 0 0 1 13 0c1.785 0 3.471.342 5.057 1.027a13.153 13.153 0 0 1 4.134 2.782 13.153 13.153 0 0 1 2.782 4.134A12.622 12.622 0 0 1 26 13a12.71 12.71 0 0 1-.468 3.458 13.192 13.192 0 0 1-1.313 3.107 12.961 12.961 0 0 1-2.028 2.626 12.954 12.954 0 0 1-2.626 2.028 13.183 13.183 0 0 1-3.107 1.313A12.71 12.71 0 0 1 13 26zm6.266-18.356H6.942a.45.45 0 0 0-.312.117.415.415 0 0 0-.13.325v1.378c0 .07.026.104.078.104l6.474 3.692.052.026c.035 0 .06-.009.078-.026l6.266-3.692a.199.199 0 0 1 .078-.026.2.2 0 0 0 .078-.026c.07 0 .104-.035.104-.104V8.086a.415.415 0 0 0-.13-.325.45.45 0 0 0-.312-.117zm-8.84 5.538c.017-.017.026-.043.026-.078 0-.052-.017-.078-.052-.078l-3.718-2.132c-.052-.017-.095-.017-.13 0-.035 0-.052.026-.052.078v5.59c0 .052.026.087.078.104h.052c.035 0 .052-.009.052-.026l3.744-3.458zm4.524.416c-.017-.052-.06-.06-.13-.026l-1.43.832a.517.517 0 0 1-.546 0l-1.248-.702c-.052-.035-.095-.035-.13 0l-4.758 4.42c-.017.017-.026.052-.026.104 0 .017.017.043.052.078a.853.853 0 0 0 .208.052h12.194c.035 0 .07-.017.104-.052 0-.07-.009-.113-.026-.13l-4.264-4.576zm4.68-2.808h-.104l-3.536 2.106c-.034 0-.052.026-.052.078-.017.017-.009.043.026.078l3.536 3.822c.035.035.06.052.078.052h.052c.052-.052.078-.087.078-.104v-5.928c0-.035-.026-.07-.078-.104z" fill="#00AB8A"/></svg>