<svg width="25" height="17" viewBox="0 0 25 17" xmlns="http://www.w3.org/2000/svg"><title>icon-25x25-ac</title><path d="M2.634 0A2.645 2.645 0 0 0 0 2.634v9.685a2.645 2.645 0 0 0 2.634 2.635H22.34c.934 0 1.753-.48 2.227-1.2A2.6 2.6 0 0 0 25 12.32V2.634C25 1.188 23.812 0 22.34 0H2.634zM15.29 1.948h7.929v1.033H15.29V1.948zm-7.025.48a5.166 5.166 0 0 1 1.019.102 5.041 5.041 0 0 1 3.177 2.12 5.04 5.04 0 0 1 .808 3.61 5.023 5.023 0 0 1-1.1 2.447 5.112 5.112 0 0 1-2.4 1.617 5.014 5.014 0 0 1-2.02.201 5.044 5.044 0 0 1-3.68-2.208 5.074 5.074 0 0 1-.762-1.809 5.023 5.023 0 0 1-.077-1.54 5.096 5.096 0 0 1 .37-1.456 5.024 5.024 0 0 1 1.446-1.934 5.068 5.068 0 0 1 2.2-1.047 5.073 5.073 0 0 1 1.017-.102zm7.025 1.457h7.929v1.033H15.29V3.885zm-5.965.42l.039.254c.02.195-.137.781-.215.996-.02.059-.02.078-.059.176l-.254.606c-.018.056-.015.058-.012.056a.406.406 0 0 0-.027.042l-.156.312-.235.489c-.058.117-.02.098-.136.137 0-.489-.313-1.173-.548-1.564-.136-.234-.136-.234-.332-.43-.273-.254-.488-.43-.996-.43-.547 0-.9.49-1.075.9a10.85 10.85 0 0 0-.234.742c-.04.215-.118.645-.118.86.078-.04.098-.059.196-.098.508-.215 1.524-.137 2.051-.078.215.039.9.117 1.017.176l-.45.45c-.586.585-1.29 1.777-.567 2.618.43.488 1.368.293 1.896.136a3.8 3.8 0 0 0 .43-.156c.137-.059.293-.156.41-.176v-.058c-.215-.059-.45-.352-.567-.547L8.366 7.666c-.02-.098-.039-.118-.058-.215.8.078 1.465.195 2.306-.254.625-.332.918-1.055.41-1.74l-.196-.214v-.02c-.332-.313-1.074-.801-1.504-.918zm5.965 1.517h7.929v1.059H15.29V5.822zm0 1.937h7.929v1.059H15.29V7.759zm0 1.937h7.929v1.059H15.29V9.696zm0 1.963h7.929v1.033H15.29v-1.033zM4.055 16.012v.698h2.092v-.568c0-.104-.026-.13-.13-.13H4.056zm14.927 0c-.103 0-.129.026-.129.13v.568h2.092v-.698h-1.963z" fill="#5D6872" fill-rule="evenodd"/></svg>