<svg width="21" height="24" viewBox="0 0 21 24" xmlns="http://www.w3.org/2000/svg"><title>icon-25x25-doorman</title><path d="M11.2 14.7l7.879 1.822C20.157 16.753 21 17.796 21 18.9v4.2a.7.7 0 0 1-.7.7h-9.1v-9.1zm6.3 5.95a1.05 1.05 0 1 0 0-2.1 1.05 1.05 0 0 0 0 2.1zM0 18.899c0-1.103.843-2.146 1.921-2.377L9.8 14.7v9.1H.7a.7.7 0 0 1-.7-.7v-4.201zM4.2 1.403C4.2.629 4.827 0 5.6 0h9.8a1.4 1.4 0 0 1 1.4 1.403V7A6.3 6.3 0 0 1 4.2 7V1.403zM5.6 7a4.9 4.9 0 0 0 9.8 0V5.6H5.6V7z" fill="#5D6872" fill-rule="evenodd"/></svg>