<svg width="22" height="16" viewBox="0 0 22 16" xmlns="http://www.w3.org/2000/svg"><title>icon-demographic</title><path d="M15.644 11.866c1.395.494 2.282 1.818 2.282 3.32H4.074c0-1.105.453-2.128 1.325-2.786.748-.57 1.575-.657 2.472-.845.334-.071 1.166-.234 1.265-.621.1-.388.09-.815.095-1.213.005-.132-.04-.142-.13-.244-.179-.21-.333-.438-.408-.708-.11-.403-.154-.825-.194-1.238-.454.127-.523-.805-.603-1.065-.055-.183-.314-1.232.17-1.084-.15-.276-.2-.617-.235-.922-.08-.673-.1-1.37.14-2.012.498-1.32 1.833-1.972 3.164-1.926 1.31.041 2.55.785 2.954 2.109.195.637.155 1.35.055 2.002-.035.25-.085.524-.21.749.519-.163.185 1.028.13 1.202-.074.25-.13 1.07-.563.947-.05.52-.074 1.136-.343 1.594-.07.117-.39.387-.39.515 0 .193.006.387.016.58.015.245.015.52.094.754.085.24.489.326.693.398.673.239 1.4.254 2.073.494zm-9.852-.627c-.469.24-.9.57-1.254.953-.073.076-.334.55-.401.55H0C0 11.723.676 11 1.587 10.704c.328-.107 1.415-.204 1.561-.57.094-.235.047-.556.031-.806-.52.041-1.248-.06-1.68-.361-.115-.077.177-.444.234-.591a2.95 2.95 0 0 0 .15-.597c.068-.473.048-.952.032-1.426-.026-.83-.052-1.738.427-2.466.431-.663 1.196-.923 1.972-.923 1.254 0 2.237.627 2.471 1.875.157.816.026 1.641.078 2.461.027.418.105.836.281 1.218.058.123.276.347.151.438a1.621 1.621 0 0 1-.338.174 3.734 3.734 0 0 1-.88.204c-.072.01-.4-.01-.452.04-.073.067-.02.474-.016.566.016.204.068.27.255.341.302.117 1.02.168 1.228.428.11.138.042.235-.104.25-.38.036-.76.076-1.113.24a280620.892 280620.892 0 0 1-.083.04zm14.598-.54c.917.294 1.6 1.021 1.61 2.043h-4.18c-.114-.407-.536-.742-.85-.991-.416-.33-.89-.62-1.427-.717-.167-.03-.84.05-.683-.275.104-.218.459-.234.673-.29.208-.056.766-.127.823-.376.016-.066.052-.707 0-.707a4.73 4.73 0 0 1-.928-.122 2.587 2.587 0 0 1-.578-.198c-.328-.163-.14-.26-.01-.534.755-1.637-.548-4.495 1.662-5.36.766-.304 1.824-.289 2.538.143.792.478 1.021 1.409 1.042 2.258.026 1.022-.23 2.202.339 3.132.104.173.198.193-.005.31a1.836 1.836 0 0 1-.277.122 3.275 3.275 0 0 1-.625.143c-.234.03-.485.066-.714.045-.015.214-.099.666.052.844.303.356 1.116.397 1.538.53z" fill="#5D6872"/></svg>