<svg width="18" height="17" viewBox="0 0 23 25" xmlns="http://www.w3.org/2000/svg"><title>icon-user-white</title><path d="M4.682 7.621C4.682 3.835 7.766.75 11.553.75c3.787 0 6.871 3.085 6.871 6.871a6.842 6.842 0 0 1-2.093 4.92c3.79 1.853 6.275 6.044 6.275 10.762a.947.947 0 0 1-.947.947H1.447a.947.947 0 0 1-.947-.947c0-4.718 2.486-8.909 6.275-10.763a6.842 6.842 0 0 1-2.093-4.919zm9.448 4.328a.045.045 0 0 0-.011-.005c.005 0 .007.003.011.005zm2.4-4.328a4.967 4.967 0 0 0-4.977-4.977A4.967 4.967 0 0 0 6.576 7.62c0 1.833.987 3.484 2.55 4.354l.052.022a4.966 4.966 0 0 0 2.375.601c.84 0 1.65-.208 2.375-.6a.262.262 0 0 0 .03-.022A4.957 4.957 0 0 0 16.53 7.62zm-7.546 4.833h-.003.003zm-6.517 9.902h18.172c-.338-4.052-2.8-7.415-6.16-8.52a6.81 6.81 0 0 1-2.926.656 6.798 6.798 0 0 1-2.926-.656c-3.36 1.105-5.822 4.468-6.16 8.52z" fill="#FFF"/></svg>