<svg width="155" height="43" viewBox="0 0 155 43" xmlns="http://www.w3.org/2000/svg" xmlns:xlink="http://www.w3.org/1999/xlink"><title>logo-white</title><defs><path id="a" d="M25.864 24.917V.054H.122v24.863h25.742z"/></defs><g fill="none" fill-rule="evenodd"><g transform="translate(129 7)"><mask id="b" fill="#fff"><use xlink:href="#a"/></mask><path d="M20.939 9.061c-.834-2.277-3.862-4.944-7.57-5.061-4.194-.132-7.406 2.616-8.35 5.061h15.92zm4.909 3.966H4.78c-.588 0-.575-.001-.496.547.412 2.826 1.971 4.905 4.502 6.325 1.487.834 3.104 1.132 4.83 1.028 2.588-.157 4.63-1.268 6.25-3.161.3-.351.525-.76.8-1.132.073-.1.2-.232.304-.233 1.411-.015 2.824-.01 4.245-.01-1.49 4.852-6.898 8.94-13.047 8.492-7.753-.564-12.58-6.96-12-13.429C.812 4.288 7.445-.557 14.205.116 21.53.845 26.18 6.925 25.848 13.027z" fill="#FFF" mask="url(#b)"/></g><path d="M99.487 10.97c-4.71.003-8.526 3.828-8.52 8.558.004 4.618 3.772 8.506 8.54 8.502 4.8-.002 8.525-3.983 8.517-8.52-.007-4.714-3.904-8.604-8.537-8.54m8.51 19.992v-2.355c-.53.44-1 .868-1.51 1.244-1.704 1.256-3.64 1.867-5.735 2.082a12.267 12.267 0 0 1-6.227-.97c-2.47-1.07-4.406-2.77-5.782-5.085-1.245-2.096-1.828-4.373-1.733-6.805.119-3.029 1.17-5.694 3.216-7.96a12.382 12.382 0 0 1 4.938-3.348c1.803-.67 3.675-.888 5.591-.7 1.865.182 3.607.746 5.2 1.728 2.469 1.52 4.244 3.615 5.258 6.343.58 1.555.792 3.16.787 4.808-.01 3.49-.003 6.98-.003 10.471 0 .568 0 .568-.588.568h-2.924c-.139 0-.277-.012-.488-.021M62 8.506c-.002-.378.093-.516.498-.505a65.46 65.46 0 0 0 3.07.001c.349-.007.433.111.432.442-.01 4.395-.009 8.79-.006 13.187.003 2.87 2.073 5.528 4.89 6.192 2.991.705 5.85-.542 7.318-3.242.514-.946.747-1.946.745-3.02-.011-4.345-.005-8.69-.005-13.034 0-.516.001-.517.537-.517 1.036 0 2.073.01 3.109-.007.329-.005.412.109.411.421-.008 4.358.014 8.715-.013 13.072-.017 2.871-.987 5.395-3.046 7.455-1.738 1.738-3.854 2.706-6.314 2.981-1.97.22-3.843-.099-5.629-.91-2.002-.907-3.527-2.35-4.63-4.231-.992-1.695-1.38-3.536-1.364-5.483.018-1.96.005-3.921.005-5.882 0-2.307.007-4.613-.008-6.92zM26.444 20.083c.083-5.389-4.513-9.663-9.698-9.536-4.782.118-9.422 4.086-9.18 9.953.198 4.81 4.175 8.935 9.421 8.968 5.154.032 9.457-4.26 9.457-9.385M16.955 32C10.361 32.007 4.987 26.657 5 20.016 5.014 13.23 10.443 7.85 17.244 8.003c6.602.149 11.596 5.327 11.752 11.716.169 6.895-5.396 12.326-12.041 12.28m101.985-1.031c-.16.01-.284.024-.409.025-1.03.002-2.06-.01-3.09.007-.318.005-.442-.067-.441-.42.01-7.332.01-14.664.002-21.995 0-.314.089-.421.408-.416 1.055.016 2.111.013 3.166.001.278-.003.383.074.368.368-.024.493-.006.989-.006 1.519.1-.035.176-.043.23-.083 2.404-1.746 5.085-2.267 7.988-1.825.843.128.844.122.844.966 0 1.018 0 2.037-.002 3.055 0 .072-.018.144-.033.254l-.82-.23c-2.989-.848-5.937.362-7.45 3.077-.516.927-.753 1.94-.753 3.001-.002 4.073-.001 8.146-.001 12.22v.476zM2 0v31c-.625 0-1.236.004-1.847-.01-.049 0-.123-.12-.139-.199-.024-.123-.01-.26-.01-.39V.552C.004.001.004 0 .448 0H2m43 15a5 5 0 1 0 0 10 5 5 0 0 0 0-10" fill="#FFF"/><path d="M44.998 28.38c-4.762 0-8.622-3.817-8.622-8.526 0-4.71 3.86-8.527 8.622-8.527 4.762 0 8.622 3.818 8.622 8.527s-3.86 8.526-8.622 8.526zm12.993-8.156c.003-.123.005-.246.005-.37 0-7.1-5.82-12.854-12.998-12.854C37.82 7 32 12.755 32 19.854c0 7.098 5.82 12.854 12.998 12.854 3.236 0 6.195-1.17 8.47-3.104V35L58 31.24V20.213l-.01.01zm.006 20.157l.003-.117c0-.06-.003-.118-.007-.176L57.917 34s-5.199 4.435-5.457 4.809l-.067.059.015.02A2.541 2.541 0 0 0 52 40.264C52 41.775 53.343 43 55 43c1.513 0 2.763-1.02 2.97-2.349l.03-.01-.003-.26z" fill="#FFF"/></g></svg>