<?xml version="1.0" encoding="iso-8859-1"?>
<!-- Generator: Adobe Illustrator 19.0.0, SVG Export Plug-In . SVG Version: 6.00 Build 0)  -->
<svg xmlns="http://www.w3.org/2000/svg" xmlns:xlink="http://www.w3.org/1999/xlink" version="1.1" id="Capa_1" x="0px" y="0px" viewBox="0 0 511.742 511.742" style="enable-background:new 0 0 511.742 511.742;" xml:space="preserve" width="512px" height="512px">
<g>
	<g>
		<path d="M256.108,363.816h-0.078c-2.209,0-3.958,1.788-3.958,3.998c0,2.21,1.831,3.998,4.037,3.998    c2.209,0,3.998-1.788,3.998-3.998C260.107,365.604,258.317,363.816,256.108,363.816z" fill="#5d6872"/>
	</g>
</g>
<g>
	<g>
		<path d="M244.115,375.811h-0.078c-2.209,0-3.959,1.788-3.959,3.998c0,2.21,1.831,3.998,4.037,3.998    c2.21,0,3.998-1.788,3.998-3.998C248.113,377.599,246.325,375.811,244.115,375.811z" fill="#5d6872"/>
	</g>
</g>
<g>
	<g>
		<path d="M232.121,387.805h-0.078c-2.21,0-3.959,1.788-3.959,3.998c0,2.209,1.831,3.998,4.037,3.998    c2.21,0,3.999-1.789,3.998-3.998C236.119,389.593,234.33,387.805,232.121,387.805z" fill="#5d6872"/>
	</g>
</g>
<g>
	<g>
		<path d="M256.108,387.805h-0.078c-2.209,0-3.958,1.788-3.958,3.998c0,2.209,1.831,3.998,4.037,3.998    c2.209,0,3.998-1.789,3.998-3.998C260.107,389.593,258.317,387.805,256.108,387.805z" fill="#5d6872"/>
	</g>
</g>
<g>
	<g>
		<path d="M280.094,387.805h-0.078c-2.203,0-3.951,1.788-3.951,3.998c0,2.209,1.826,3.998,4.029,3.998    c2.216,0,3.998-1.789,3.998-3.998C284.092,389.593,282.311,387.805,280.094,387.805z" fill="#5d6872"/>
	</g>
</g>
<g>
	<g>
		<path d="M268.1,375.811h-0.078c-2.203,0-3.951,1.788-3.951,3.998c0,2.21,1.826,3.998,4.029,3.998c2.216,0,3.998-1.788,3.998-3.998    C272.098,377.599,270.317,375.811,268.1,375.811z" fill="#5d6872"/>
	</g>
</g>
<g>
	<g>
		<path d="M323.837,403.797H187.906c-2.21,0-3.998,1.787-3.998,3.997v55.972c0,1.062,0.421,2.077,1.171,2.827l15.992,15.992    c0.749,0.749,1.764,1.171,2.826,1.171h103.947c1.062,0,2.078-0.422,2.829-1.171l15.992-15.992c0.748-0.75,1.17-1.765,1.17-2.827    v-55.972C327.835,405.584,326.048,403.797,323.837,403.797z M319.838,462.111L306.19,475.76H205.553l-13.65-13.649v-50.318    h127.935V462.111z" fill="#5d6872"/>
	</g>
</g>
<g>
	<g>
		<path d="M331.621,419.788l-151.922,7.996c-2.206,0.125-3.896,1.999-3.783,4.209c0.113,2.132,1.878,3.787,3.99,3.787    c0.07,0,0.144,0,0.215,0l151.922-7.996c2.211-0.125,3.896-1.999,3.787-4.209C335.705,421.373,333.816,419.64,331.621,419.788z" fill="#5d6872"/>
	</g>
</g>
<g>
	<g>
		<path d="M331.621,443.776l-151.922,7.996c-2.206,0.124-3.896,1.999-3.783,4.208c0.113,2.132,1.878,3.787,3.99,3.787    c0.07,0,0.144,0,0.215,0l151.922-7.995c2.211-0.125,3.896-1.999,3.787-4.209C335.705,445.361,333.816,443.651,331.621,443.776z" fill="#5d6872"/>
	</g>
</g>
<g>
	<g>
		<path d="M255.87,131.933c-74.954,0-135.931,60.977-135.931,135.932c0,47.21,23.871,90.08,63.968,115.145v24.784    c0,2.21,1.789,3.998,3.998,3.998h135.931c2.211,0,3.998-1.788,3.997-3.998V383.01c40.098-25.05,63.969-67.927,63.969-115.145    C391.802,192.91,330.825,131.933,255.87,131.933z M321.776,377.356c-1.204,0.719-1.938,2.015-1.938,3.42v23.021H191.904v-23.021    c0-1.405-0.734-2.701-1.933-3.42c-38.844-23.426-62.035-64.358-62.035-109.491c0-70.543,57.393-127.936,127.935-127.936    c70.543,0,127.936,57.393,127.936,127.936C383.807,313.013,360.616,353.938,321.776,377.356z" fill="#5d6872"/>
	</g>
</g>
<g>
	<g>
		<path d="M293.664,476.213c-1.959-1-4.357-0.219-5.371,1.718c-0.297,0.57-7.537,13.821-32.422,13.821    c-24.851,0-32.105-13.211-32.421-13.813c-0.995-1.96-3.385-2.734-5.349-1.757c-1.976,0.984-2.776,3.388-1.788,5.364    c0.371,0.742,9.448,18.202,39.558,18.202c30.109,0,39.184-17.46,39.559-18.202C296.412,479.586,295.617,477.213,293.664,476.213z" fill="#5d6872"/>
	</g>
</g>
<g>
	<g>
		<path d="M83.973,263.867H3.998c-2.21,0-3.998,1.788-3.998,3.998c0,2.209,1.788,3.998,3.998,3.998h79.975    c2.21,0,3.998-1.789,3.998-3.998C87.971,265.655,86.183,263.867,83.973,263.867z" fill="#5d6872"/>
	</g>
</g>
<g>
	<g>
		<path d="M507.744,263.867h-79.961c-2.209,0-3.998,1.788-3.998,3.998c0,2.209,1.789,3.998,3.998,3.998h79.961    c2.209,0,3.998-1.789,3.998-3.998C511.742,265.655,509.953,263.867,507.744,263.867z" fill="#5d6872"/>
	</g>
</g>
<g>
	<g>
		<path d="M110.471,351.823c-1.109-1.913-3.557-2.569-5.462-1.468l-69.262,39.979c-1.913,1.11-2.568,3.553-1.464,5.467    c0.742,1.28,2.085,1.998,3.467,1.998c0.68,0,1.367-0.171,1.995-0.53l69.262-39.979C110.92,356.18,111.575,353.736,110.471,351.823    z" fill="#5d6872"/>
	</g>
</g>
<g>
	<g>
		<path d="M477.463,139.93c-1.11-1.921-3.561-2.566-5.467-1.464l-69.23,39.979c-1.914,1.106-2.569,3.549-1.469,5.462    c0.75,1.284,2.094,1.999,3.467,1.999c0.687,0,1.375-0.172,2-0.535l69.23-39.979C477.906,144.287,478.563,141.843,477.463,139.93z" fill="#5d6872"/>
	</g>
</g>
<g>
	<g>
		<path d="M383.807,46.277c-1.914-1.112-4.358-0.453-5.467,1.465l-39.963,69.246c-1.101,1.913-0.445,4.358,1.467,5.462    c0.625,0.363,1.312,0.535,2,0.535c1.373,0,2.716-0.718,3.467-1.999l39.963-69.246C386.375,49.826,385.719,47.382,383.807,46.277z" fill="#5d6872"/>
	</g>
</g>
<g>
	<g>
		<path d="M255.887,11.994c-2.211,0-3.999,1.788-3.999,3.998v79.944c0,2.21,1.789,3.997,3.999,3.997    c2.209,0,3.998-1.787,3.998-3.997V15.992C259.885,13.782,258.095,11.994,255.887,11.994z" fill="#5d6872"/>
	</g>
</g>
<g>
	<g>
		<path d="M173.392,116.973l-39.979-69.23c-1.105-1.918-3.56-2.577-5.462-1.465c-1.913,1.106-2.568,3.549-1.464,5.463l39.98,69.23    c0.741,1.284,2.085,1.999,3.467,1.999c0.679,0,1.366-0.172,1.994-0.535C173.841,121.33,174.497,118.886,173.392,116.973z" fill="#5d6872"/>
	</g>
</g>
<g>
	<g>
		<path d="M476.01,390.318l-69.246-39.979c-1.906-1.108-4.358-0.453-5.467,1.468c-1.099,1.913-0.445,4.358,1.469,5.467    l69.246,39.979c0.625,0.359,1.312,0.53,1.998,0.53c1.375,0,2.718-0.718,3.469-1.998    C478.578,393.871,477.922,391.427,476.01,390.318z" fill="#5d6872"/>
	</g>
</g>
<g>
	<g>
		<path d="M109.008,178.414L39.761,138.45c-1.917-1.109-4.361-0.453-5.462,1.464c-1.104,1.913-0.449,4.358,1.464,5.462    l69.247,39.964c0.628,0.363,1.316,0.535,1.995,0.535c1.382,0,2.725-0.719,3.467-1.999    C111.577,181.963,110.921,179.519,109.008,178.414z" fill="#5d6872"/>
	</g>
</g>
<g>
	<g>
		<path d="M258.698,337.002c-1.561-1.562-4.091-1.562-5.653,0l-51.974,51.974c-1.562,1.561-1.562,4.091,0,5.653    c0.781,0.781,1.804,1.172,2.826,1.172c1.023,0,2.046-0.391,2.828-1.172l51.973-51.974    C260.26,341.094,260.26,338.564,258.698,337.002z" fill="#5d6872"/>
	</g>
</g>
<g>
	<g>
		<path d="M310.673,388.976l-51.975-51.974c-1.561-1.562-4.091-1.561-5.653,0c-1.562,1.561-1.562,4.091,0,5.653l51.973,51.974    c0.781,0.781,1.805,1.172,2.826,1.172c1.023,0,2.047-0.391,2.829-1.172C312.234,393.068,312.234,390.538,310.673,388.976z" fill="#5d6872"/>
	</g>
</g>
<g>
	<g>
		<path d="M346.341,215.688c-1.703-2.558-5.045-3.803-10.215-3.803c-16.539,0-52.894,12.634-63.779,22.16    c-14.287,12.545-15.707,34.382-3.164,48.687c6.553,7.45,16,11.729,25.934,11.729c8.371,0,16.453-3.045,22.753-8.575    C330.349,274.923,353.368,226.163,346.341,215.688z M312.592,279.884c-10.581,9.292-28.133,8.128-37.395-2.429    c-9.644-10.98-8.551-27.76,2.428-37.396c9.473-8.297,43.916-20.178,58.502-20.178c2.461,0,3.474,0.344,3.561,0.282    C342.11,226.496,325.164,268.834,312.592,279.884z" fill="#5d6872"/>
	</g>
</g>
<g>
	<g>
		<path d="M308.203,252.701c-1.014-1.957-3.42-2.726-5.387-1.707c-2.078,1.082-50.943,27.006-50.943,76.841    c0,2.21,1.788,3.998,3.998,3.998c2.209,0,3.998-1.788,3.998-3.998c0-44.915,46.164-69.5,46.633-69.746    C308.461,257.069,309.219,254.656,308.203,252.701z" fill="#5d6872"/>
	</g>
</g>
<g>
	<g>
		<path d="M242.067,276.423c-1.082-6.309-4.561-11.829-9.792-15.531c-7.63-5.399-33.738-15.066-45.989-15.066    c-4.677,0-7.672,1.44-8.906,4.287c-4.401,10.159,18.783,44.005,27.193,49.955c4.072,2.882,8.855,4.404,13.829,4.404    c7.789,0,15.117-3.795,19.605-10.136C241.708,289.105,243.152,282.74,242.067,276.423z M231.477,289.713    c-4.892,6.934-15.317,8.762-22.286,3.826c-8.316-5.886-24.222-33.15-24.507-39.612c0.348-0.055,0.867-0.106,1.601-0.106    c10.421,0,34.69,8.87,41.37,13.599c3.49,2.467,5.809,6.145,6.532,10.361C234.909,281.983,233.945,286.231,231.477,289.713z" fill="#5d6872"/>
	</g>
</g>
<g>
	<g>
		<path d="M251.249,309.695c-18.347-28.79-40.534-40.862-41.472-41.361c-1.94-1.04-4.368-0.305-5.407,1.647    c-1.042,1.944-0.304,4.364,1.644,5.411c0.211,0.11,21.262,11.557,38.488,38.598c0.765,1.195,2.057,1.851,3.377,1.851    c0.734,0,1.48-0.203,2.144-0.625C251.885,314.029,252.432,311.561,251.249,309.695z" fill="#5d6872"/>
	</g>
</g>
<g>
</g>
<g>
</g>
<g>
</g>
<g>
</g>
<g>
</g>
<g>
</g>
<g>
</g>
<g>
</g>
<g>
</g>
<g>
</g>
<g>
</g>
<g>
</g>
<g>
</g>
<g>
</g>
<g>
</g>
</svg>
