<svg width="20" height="20" viewBox="0 0 20 20" xmlns="http://www.w3.org/2000/svg"><title>offer</title><path d="M10 0C4.477 0 0 4.477 0 10c0 2.608.998 4.982 2.633 6.762.5.545-.758 2.406-1.696 3.238C5 20 5.402 18.906 6 19.168A9.967 9.967 0 0 0 10 20c5.523 0 10-4.477 10-10S15.523 0 10 0zm1.25 15.977V17.5a.624.624 0 0 1-.624.625H10a.624.624 0 0 1-.625-.625v-1.384c-1.25-.054-2.441-.35-3.21-.725-.137-.067-.25-.222-.212-.37l.411-1.677a.311.311 0 0 1 .166-.211.316.316 0 0 1 .27 0c.793.379 1.812.69 2.925.69 1.125 0 1.893-.434 1.893-1.223 0-.75-.631-1.226-2.094-1.72-2.113-.71-3.522-1.698-3.522-3.613 0-1.739 1.497-3.1 3.372-3.515V2.5c0-.346.28-.625.625-.625h.625c.346 0 .625.28.625.625v1.113c1.25.051 1.984.27 2.607.536a.323.323 0 0 1 .185.377L13.63 6.13a.325.325 0 0 1-.438.218 6.196 6.196 0 0 0-2.504-.524c-1.284 0-1.699.554-1.699 1.107 0 .65.691 1.066 2.373 1.698 2.348.83 3.35 1.916 3.35 3.695 0 1.757-1.587 3.258-3.462 3.653z" fill="#323C47"/></svg>