<svg width="100" height="130" xmlns="http://www.w3.org/2000/svg">
 <title>logo-dark</title>

 <g>
  <title>background</title>
  <rect fill="none" id="canvas_background" height="132" width="102" y="-1" x="-1"/>
 </g>
 <g>
  <title>Layer 1</title>
  <g id="svg_1" fill-rule="evenodd" fill="none">
   <path id="svg_2" fill="#00AB8A" d="m50.499992,29.999996a18.26923,17.5 0 1 0 0,35.000004a18.26923,17.5 0 0 0 0,-35.000004"/>
   <path id="svg_3" fill="#00AB8A" d="m50.492683,76.829987c-17.399612,0 -31.503462,-13.359489 -31.503462,-29.840992c0,-16.484993 14.103849,-29.844498 31.503462,-29.844498c17.399605,0 31.503464,13.363005 31.503464,29.844498s-14.103859,29.840992 -31.503464,29.840992zm47.474426,-28.545994c0.010956,-0.430504 0.018257,-0.860996 0.018257,-1.294998c0,-24.850004 -21.265388,-44.988997 -47.492683,-44.988997c-26.227308,0 -47.492689,20.142502 -47.492689,44.988997c0,24.842999 21.265381,44.989002 47.492689,44.989002c11.823853,0 22.635582,-4.094994 30.948082,-10.863998l0,18.885994l16.559219,-13.160004l0,-38.594501l-0.03653,0.035007l0.003654,0.003498zm0.021919,70.549503l0.010956,-0.409508c0,-0.209999 -0.010956,-0.412994 -0.025574,-0.615982l-0.277695,-21.308006s-18.996338,15.522499 -19.939041,16.831482l-0.244804,0.206512l0.054817,0.070007a9.284423,8.893499 0 0 0 -1.490776,4.815987c0,5.288513 4.907112,9.576012 10.96154,9.576012c5.528275,0 10.095581,-3.570015 10.851921,-8.221489l0.109612,-0.035019l-0.010956,-0.909996z"/>
  </g>
 </g>
</svg>