<?xml version="1.0" encoding="iso-8859-1"?>
<!-- Generator: Adobe Illustrator 17.1.0, SVG Export Plug-In . SVG Version: 6.00 Build 0)  -->
<!DOCTYPE svg PUBLIC "-//W3C//DTD SVG 1.1//EN" "http://www.w3.org/Graphics/SVG/1.1/DTD/svg11.dtd">
<svg xmlns="http://www.w3.org/2000/svg" xmlns:xlink="http://www.w3.org/1999/xlink" version="1.1" id="Capa_1" x="0px" y="0px" viewBox="0 0 193.142 193.142" style="enable-background:new 0 0 193.142 193.142;" xml:space="preserve" width="512px" height="512px">
<path d="M185.142,67.917v17.676c-2.92-1.988-6.443-3.153-10.234-3.153H66.617v-2.371c0-9.374-7.626-17-17-17H28.266  c-9.374,0-17,7.626-17,17v3.761C10.113,84.308,9.019,84.898,8,85.592V53.01H0v47.664v6.257v4.674v7.884v20.644h8v-16.644h177.142  v16.644h8v-20.644v-7.884v-4.674v-6.257V67.917H185.142z M18.234,90.439h48.383h108.29c5.643,0,10.234,4.591,10.234,10.234v2.257H8  v-2.257C8,95.03,12.591,90.439,18.234,90.439z" fill="#5d6872"/>
<g>
</g>
<g>
</g>
<g>
</g>
<g>
</g>
<g>
</g>
<g>
</g>
<g>
</g>
<g>
</g>
<g>
</g>
<g>
</g>
<g>
</g>
<g>
</g>
<g>
</g>
<g>
</g>
<g>
</g>
</svg>
