<svg width="47" height="49" viewBox="0 0 47 49" xmlns="http://www.w3.org/2000/svg"><path d="M25.097 20.184l2.993-2.993a1.176 1.176 0 0 0-1.663-1.663l-2.993 2.993-2.993-2.993a1.176 1.176 0 0 0-1.663 1.663l2.993 2.993-2.993 2.993a1.176 1.176 0 1 0 1.663 1.663l2.993-2.993 2.993 2.993a1.176 1.176 0 0 0 1.663-1.663l-2.993-2.993zM21.633.664A2.628 2.628 0 0 1 23.39 0c.65 0 1.285.231 1.776.666l8.175 7.34h7.276c.567 0 1.056.488 1.056 1.056v6.393l4.72 4.25c.067.068.108.11.146.154.163.189.247.392.257.682v25.615c0 1.563-1.302 2.844-2.862 2.844H2.845a2.852 2.852 0 0 1-2.844-2.844V20.624c-.01-.378.093-.617.41-.943l4.678-4.175V9.064c-.003-.534.426-1.006.988-1.058h7.344L21.633.664zm2.12 1.582a.55.55 0 0 0-.364-.152.547.547 0 0 0-.36.15l-6.426 5.762H30.16l-6.407-5.76zM7.202 14.392v1.397c.001 3.394.001 5.635-.001 7.901l15.753 11.486c.317.23.553.23.87 0l15.737-11.469v-13.59H7.2v4.275zm34.47 7.772l2.386-1.733-2.386-2.127v3.86zM2.736 20.431l2.353 1.714v-3.82L2.736 20.43zm22.337 16.456a2.843 2.843 0 0 1-3.368 0L2.112 22.6v23.555c0 .42.312.733.733.733h41.088c.406 0 .75-.335.75-.733V22.583l-19.61 14.304z" fill="#EC644B"/></svg>